<svg width="512" height="512" viewBox="0 0 512 512" fill="none" xmlns="http://www.w3.org/2000/svg">
<g filter="url(#filter0_d_248_43)">
<path fill-rule="evenodd" clip-rule="evenodd" d="M286.638 101C318.69 101 343.097 108.336 359.858 123.009C376.619 137.387 385 156.168 385 179.35C385 186.1 384.412 192.409 383.236 198.278C379.707 218.819 370.738 237.16 356.33 253.299C341.921 269.439 322.66 280.883 298.548 287.632L348.39 410H263.261L219.594 305.931H201.509H126L135.427 240.094H210.772H257.527C271.348 240.094 282.228 236.719 290.167 229.97C298.401 223.221 303.694 213.684 306.046 201.359C306.634 196.664 306.928 193.583 306.928 192.115C306.928 182.725 303.841 175.536 297.666 170.547C291.784 165.265 282.963 162.624 271.201 162.624H224.446H149.14L160.048 101H286.638Z" fill="#212121"/>
<path d="M305.256 290.847C327.686 283.723 346.022 272.353 360.059 256.629C375.052 239.836 384.45 220.666 388.152 199.192C389.391 192.982 390 186.363 390 179.35C390 154.801 381.05 134.609 363.133 119.23C345.132 103.483 319.367 96 286.638 96H160.048H155.855L155.124 100.129L144.216 161.752L143.177 167.624H149.14H224.446H271.201C282.317 167.624 289.72 170.132 294.325 174.267L294.422 174.354L294.523 174.436C299.303 178.298 301.928 183.928 301.928 192.115C301.928 193.201 301.687 195.911 301.105 200.576C298.917 211.888 294.137 220.251 286.997 226.103L286.963 226.132L286.929 226.161C280.152 231.921 270.552 235.094 257.527 235.094H210.772H135.427H131.092L130.478 239.385L121.05 305.222L120.233 310.931H126H201.509H216.27L258.65 411.935L259.937 415H263.261H348.39H355.826L353.021 408.114L305.256 290.847Z" stroke="#151719" stroke-width="10"/>
</g>
<defs>
<filter id="filter0_d_248_43" x="114.466" y="91" width="302.534" height="346" filterUnits="userSpaceOnUse" color-interpolation-filters="sRGB">
<feFlood flood-opacity="0" result="BackgroundImageFix"/>
<feColorMatrix in="SourceAlpha" type="matrix" values="0 0 0 0 0 0 0 0 0 0 0 0 0 0 0 0 0 0 127 0" result="hardAlpha"/>
<feOffset dx="22" dy="17"/>
<feComposite in2="hardAlpha" operator="out"/>
<feColorMatrix type="matrix" values="0 0 0 0 0 0 0 0 0 0 0 0 0 0 0 0 0 0 0.25 0"/>
<feBlend mode="normal" in2="BackgroundImageFix" result="effect1_dropShadow_248_43"/>
<feBlend mode="normal" in="SourceGraphic" in2="effect1_dropShadow_248_43" result="shape"/>
</filter>
</defs>
</svg>
